<?xml version="1.0" encoding="utf-8"?>


<!-- The icon can be used freely in both personal and commercial projects with no attribution required, but always appreciated. 
You may NOT sub-license, resell, rent, redistribute or otherwise transfer the icon without express written permission from iconmonstr.com -->


<!DOCTYPE svg PUBLIC "-//W3C//DTD SVG 1.1//EN" "http://www.w3.org/Graphics/SVG/1.1/DTD/svg11.dtd">

<svg version="1.1" xmlns="http://www.w3.org/2000/svg" xmlns:xlink="http://www.w3.org/1999/xlink" x="0px" y="0px"

	 width="512px" height="512px" viewBox="0 0 512 512" enable-background="new 0 0 512 512" xml:space="preserve">

<path fill="#125688" id="instagram-circle-icon" d="M353.894,166.068v25.315c0,4.059-3.291,7.349-7.351,7.349h-24.77c-4.06,0-7.35-3.291-7.35-7.349

	v-25.315c0-4.059,3.29-7.35,7.35-7.35h24.77C350.603,158.718,353.894,162.009,353.894,166.068z M259,290.811

	c18.642,0,33.752-15.111,33.752-33.752c0-18.642-15.11-33.752-33.752-33.752s-33.753,15.11-33.753,33.752

	C225.247,275.699,240.358,290.811,259,290.811z M462,256c0,113.771-92.229,206-206,206S50,369.771,50,256S142.229,50,256,50

	S462,142.229,462,256z M374.837,222.731h-67.675c6.896,9.689,10.967,21.529,10.967,34.328c0,32.738-26.541,59.279-59.279,59.279

	c-32.739,0-59.28-26.541-59.28-59.279c0-12.798,4.069-24.639,10.966-34.328h-67.372v103.89c0,25.306,20.516,45.82,45.821,45.82

	h140.032c25.306,0,45.82-20.515,45.82-45.82V222.731z M258.85,302.728c25.182,0,45.668-20.487,45.668-45.669

	c0-13.672-6.047-25.95-15.596-34.328c-3.351-2.938-7.13-5.392-11.235-7.259c-5.748-2.614-12.121-4.083-18.837-4.083

	c-6.715,0-13.09,1.469-18.839,4.083c-4.104,1.867-7.884,4.321-11.234,7.259c-9.549,8.377-15.597,20.656-15.597,34.328

	C213.18,282.24,233.668,302.728,258.85,302.728z M374.837,185.379c0-25.307-20.515-45.82-45.82-45.82H203.804v57.766h-9.394v-57.766

	h-5.426c-0.355,0-0.705,0.018-1.059,0.026v57.74h-9.396v-56.554c-2.275,0.531-4.485,1.229-6.616,2.086v54.468h-9.395v-49.34

	c-11.708,8.301-19.356,21.949-19.356,37.394v30.093h73.454c10.751-10.917,25.698-17.693,42.232-17.693

	c16.532,0,31.479,6.776,42.232,17.693h73.755V185.379z"/>

</svg>

